<svg width="92" height="19" viewBox="0 0 92 19" fill="none" xmlns="http://www.w3.org/2000/svg">
<path d="M4.592 4.44V7.848H10.088V11.016H4.592V14.712H10.808V18H0.488V1.152H10.808V4.44H4.592ZM12.6564 11.28C12.6564 9.904 12.9124 8.696 13.4244 7.656C13.9524 6.616 14.6644 5.816 15.5604 5.256C16.4564 4.696 17.4564 4.416 18.5604 4.416C19.4404 4.416 20.2404 4.6 20.9604 4.968C21.6964 5.336 22.2724 5.832 22.6884 6.456V0.24H26.7924V18H22.6884V16.08C22.3044 16.72 21.7524 17.232 21.0324 17.616C20.3284 18 19.5044 18.192 18.5604 18.192C17.4564 18.192 16.4564 17.912 15.5604 17.352C14.6644 16.776 13.9524 15.968 13.4244 14.928C12.9124 13.872 12.6564 12.656 12.6564 11.28ZM22.6884 11.304C22.6884 10.28 22.4004 9.472 21.8244 8.88C21.2644 8.288 20.5764 7.992 19.7604 7.992C18.9444 7.992 18.2484 8.288 17.6724 8.88C17.1124 9.456 16.8324 10.256 16.8324 11.28C16.8324 12.304 17.1124 13.12 17.6724 13.728C18.2484 14.32 18.9444 14.616 19.7604 14.616C20.5764 14.616 21.2644 14.32 21.8244 13.728C22.4004 13.136 22.6884 12.328 22.6884 11.304ZM42.9854 4.608V18H38.8814V16.176C38.4654 16.768 37.8974 17.248 37.1774 17.616C36.4734 17.968 35.6894 18.144 34.8254 18.144C33.8014 18.144 32.8974 17.92 32.1134 17.472C31.3294 17.008 30.7214 16.344 30.2894 15.48C29.8574 14.616 29.6414 13.6 29.6414 12.432V4.608H33.7214V11.88C33.7214 12.776 33.9534 13.472 34.4174 13.968C34.8814 14.464 35.5054 14.712 36.2894 14.712C37.0894 14.712 37.7214 14.464 38.1854 13.968C38.6494 13.472 38.8814 12.776 38.8814 11.88V4.608H42.9854ZM47.8533 18.192C47.1333 18.192 46.5413 17.984 46.0773 17.568C45.6293 17.136 45.4053 16.608 45.4053 15.984C45.4053 15.344 45.6293 14.808 46.0773 14.376C46.5413 13.944 47.1333 13.728 47.8533 13.728C48.5573 13.728 49.1333 13.944 49.5813 14.376C50.0453 14.808 50.2773 15.344 50.2773 15.984C50.2773 16.608 50.0453 17.136 49.5813 17.568C49.1333 17.984 48.5573 18.192 47.8533 18.192ZM51.8908 11.28C51.8908 9.904 52.1468 8.696 52.6588 7.656C53.1868 6.616 53.8988 5.816 54.7948 5.256C55.6908 4.696 56.6908 4.416 57.7948 4.416C58.6748 4.416 59.4748 4.6 60.1948 4.968C60.9308 5.336 61.5068 5.832 61.9228 6.456V0.24H66.0268V18H61.9228V16.08C61.5388 16.72 60.9868 17.232 60.2668 17.616C59.5628 18 58.7388 18.192 57.7948 18.192C56.6908 18.192 55.6908 17.912 54.7948 17.352C53.8988 16.776 53.1868 15.968 52.6588 14.928C52.1468 13.872 51.8908 12.656 51.8908 11.28ZM61.9228 11.304C61.9228 10.28 61.6348 9.472 61.0588 8.88C60.4988 8.288 59.8108 7.992 58.9948 7.992C58.1788 7.992 57.4828 8.288 56.9068 8.88C56.3468 9.456 56.0668 10.256 56.0668 11.28C56.0668 12.304 56.3468 13.12 56.9068 13.728C57.4828 14.32 58.1788 14.616 58.9948 14.616C59.8108 14.616 60.4988 14.32 61.0588 13.728C61.6348 13.136 61.9228 12.328 61.9228 11.304ZM75.0918 18.192C73.7798 18.192 72.5958 17.912 71.5398 17.352C70.4998 16.792 69.6758 15.992 69.0678 14.952C68.4758 13.912 68.1798 12.696 68.1798 11.304C68.1798 9.928 68.4838 8.72 69.0918 7.68C69.6998 6.624 70.5318 5.816 71.5878 5.256C72.6438 4.696 73.8278 4.416 75.1398 4.416C76.4518 4.416 77.6358 4.696 78.6918 5.256C79.7478 5.816 80.5798 6.624 81.1878 7.68C81.7958 8.72 82.0998 9.928 82.0998 11.304C82.0998 12.68 81.7878 13.896 81.1638 14.952C80.5558 15.992 79.7158 16.792 78.6438 17.352C77.5878 17.912 76.4038 18.192 75.0918 18.192ZM75.0918 14.64C75.8758 14.64 76.5398 14.352 77.0838 13.776C77.6438 13.2 77.9238 12.376 77.9238 11.304C77.9238 10.232 77.6518 9.408 77.1078 8.832C76.5798 8.256 75.9238 7.968 75.1398 7.968C74.3398 7.968 73.6758 8.256 73.1478 8.832C72.6198 9.392 72.3558 10.216 72.3558 11.304C72.3558 12.376 72.6118 13.2 73.1238 13.776C73.6518 14.352 74.3078 14.64 75.0918 14.64ZM91.7411 14.52V18H89.6531C88.1651 18 87.0051 17.64 86.1731 16.92C85.3411 16.184 84.9251 14.992 84.9251 13.344V8.016H83.2931V4.608H84.9251V1.344H89.0291V4.608H91.7171V8.016H89.0291V13.392C89.0291 13.792 89.1251 14.08 89.3171 14.256C89.5091 14.432 89.8291 14.52 90.2771 14.52H91.7411Z" fill="#608BFF"/>
</svg>
