<svg width="22" height="28" viewBox="0 0 22 28" fill="none" xmlns="http://www.w3.org/2000/svg">
<path d="M11 18C11.7333 18 12.3613 17.7387 12.884 17.216C13.4058 16.6942 13.6666 16.0667 13.6666 15.3334C13.6666 14.6 13.4058 13.972 12.884 13.4494C12.3613 12.9276 11.7333 12.6667 11 12.6667C10.2666 12.6667 9.63909 12.9276 9.11731 13.4494C8.59465 13.972 8.33331 14.6 8.33331 15.3334C8.33331 16.0667 8.59465 16.6942 9.11731 17.216C9.63909 17.7387 10.2666 18 11 18ZM18.4666 24.6667L13.7 19.9C13.3222 20.1445 12.9058 20.3334 12.4506 20.4667C11.9946 20.6 11.5111 20.6667 11 20.6667C9.53331 20.6667 8.27776 20.1445 7.23331 19.1C6.18887 18.0556 5.66665 16.8 5.66665 15.3334C5.66665 13.8667 6.18887 12.6111 7.23331 11.5667C8.27776 10.5222 9.53331 10 11 10C12.4666 10 13.7222 10.5222 14.7666 11.5667C15.8111 12.6111 16.3333 13.8667 16.3333 15.3334C16.3333 15.8445 16.2666 16.3222 16.1333 16.7667C16 17.2111 15.8111 17.6222 15.5666 18L19 21.4334V9.63335L13.7333 3.33335H2.99998V24.6667H18.4666ZM2.99998 27.3334C2.26665 27.3334 1.63909 27.0725 1.11731 26.5507C0.594646 26.028 0.333313 25.4 0.333313 24.6667V3.33335C0.333313 2.60002 0.594646 1.97202 1.11731 1.44935C1.63909 0.927576 2.26665 0.666687 2.99998 0.666687H13.7666C14.1666 0.666687 14.5444 0.750243 14.9 0.917354C15.2555 1.08358 15.5555 1.32224 15.8 1.63335L21.0333 7.93335C21.2111 8.1778 21.3613 8.44447 21.484 8.73335C21.6058 9.02224 21.6666 9.32224 21.6666 9.63335V24.6667C21.6666 25.4 21.4058 26.028 20.884 26.5507C20.3613 27.0725 19.7333 27.3334 19 27.3334H2.99998Z" fill="white"/>
</svg>
